<svg width="134" height="124" viewBox="0 0 134 124" fill="none" xmlns="http://www.w3.org/2000/svg">
<path fill-rule="evenodd" clip-rule="evenodd" d="M14.4402 0.143606C10.4356 1.149 5.24615 6.32777 2.52016 12.0392C-0.808489 19.0134 -0.843094 25.3238 2.43618 27.3508C3.31044 27.891 3.60125 27.9622 4.86164 27.9448C7.46336 27.909 9.97381 26.4924 13.0252 23.3381C17.2769 18.9432 20.2006 12.8859 20.6663 7.50761C20.9342 4.41209 20.0112 1.74176 18.3096 0.689615C17.27 0.046874 15.7049 -0.173919 14.4402 0.143606ZM28.2515 22.8994C22.685 23.8394 18.493 26.0356 14.3763 30.1691C10.122 34.4406 7.53177 39.3536 5.5655 46.8812C0.419924 66.5793 5.74237 87.6633 20.9696 107.903C24.614 112.746 29.7061 118.457 33.3634 121.803C36.2281 124.423 36.3159 124.472 35.2824 122.874C33.1022 119.502 29.2235 111.969 26.5319 105.879C21.7846 95.1367 18.1068 83.8131 16.6321 75.3982C15.5666 69.3174 15.4232 67.7217 15.4161 61.8623C15.4102 56.9208 15.4618 56.0048 15.8761 53.6903C17.0355 47.2139 19.3071 42.2407 22.8224 38.4828C26.1642 34.9105 31.3357 32.2066 36.7512 31.2004C39.0898 30.7659 44.0727 30.7074 46.8699 31.0818C50.4799 31.5649 53.0006 32.1619 59.6701 34.1136C60.4213 34.3333 61.0361 34.474 61.0361 34.4258C61.0361 34.3779 60.1936 33.7145 59.1642 32.9517C53.5578 28.7986 46.4091 25.2144 40.7343 23.7117C36.6925 22.6414 31.7028 22.3168 28.2515 22.8994ZM83.4543 44.6241L83.3985 47.6943L81.5265 47.6731L79.6546 47.6518V48.9537V50.2558H81.5771H83.4997V58.6543V67.0528H84.8151H86.1305V58.6543V50.2558H88.0628H89.9949L89.9348 49.018L89.8745 47.7803L88.0531 47.7532L86.2317 47.7261L86.1759 44.6399L86.12 41.5537H84.8151H83.5102L83.4543 44.6241ZM91.0735 41.8236C91.0167 41.972 90.9968 42.86 91.0294 43.7968L91.0887 45.5H92.4041H93.7196L93.7775 43.5268L93.8353 41.5537H92.5063C91.5853 41.5537 91.1454 41.6364 91.0735 41.8236ZM45.1424 47.4292C40.6149 48.0284 37.0807 51.367 36.3428 55.7413C35.5821 60.2512 37.8177 64.6015 41.885 66.5255C43.3731 67.2295 44.4487 67.4469 46.4733 67.4527C49.3832 67.461 51.4954 66.6896 53.2953 64.9613L54.1554 64.1354V65.5941V67.0528H55.4728H56.7901L56.7377 57.3895L56.6851 47.7261H55.4708H54.2566L54.1971 49.1982L54.1374 50.6702L53.6399 50.0791C52.0076 48.1391 48.3634 47.0028 45.1424 47.4292ZM66.399 47.6026C64.5827 48.1316 63.6113 48.7078 62.0448 50.1857C56.8589 55.0777 58.2371 63.5022 64.7203 66.5421C67.2935 67.7486 70.5232 67.8644 73.2409 66.8476C74.5853 66.3445 76.5028 64.9836 77.2479 64.0033C77.7356 63.3615 78.8451 61.3378 78.8451 61.0895C78.8451 61.0302 78.1827 60.9816 77.3732 60.9816C75.9074 60.9816 75.9001 60.9844 75.5314 61.6689C75.0046 62.6469 73.8632 63.6813 72.5715 64.3509C71.5422 64.8844 71.2908 64.9275 69.2323 64.9218C66.534 64.9148 65.6037 64.5653 64.0007 62.9574C62.1117 61.063 61.3613 58.7045 61.8118 56.0783C62.2746 53.3782 63.7283 51.4111 66.0955 50.2811C67.0673 49.8172 67.4653 49.7498 69.2323 49.7498C71.0621 49.7498 71.3722 49.8069 72.468 50.3448C73.6748 50.9374 75.4877 52.5962 75.7166 53.3173C75.82 53.6433 76.0493 53.6961 77.3625 53.6961C79.1069 53.6961 79.0849 53.7605 77.9751 51.9037C77.1959 50.5998 75.4966 48.995 74.1983 48.3373C71.9844 47.2153 68.7686 46.9125 66.399 47.6026ZM120.402 47.6083C118.407 48.1501 117.52 48.6439 116.019 50.0477C110.402 55.3022 112.664 64.7636 120.086 67.0559C121.905 67.6179 124.948 67.611 126.639 67.0413C128.931 66.2694 131.1 64.4964 132.323 62.3952C133.182 60.9191 133.173 60.9015 131.564 60.9466C130.346 60.9808 130.104 61.05 129.844 61.4394C129.092 62.5636 127.674 63.8565 126.631 64.369C125.588 64.881 125.297 64.9279 123.165 64.9279C121.033 64.9279 120.742 64.881 119.699 64.3685C117.652 63.3627 116.038 61.1818 115.742 59.0212L115.622 58.1484H124.655H133.689V57.3664C133.689 53.178 130.901 49.1526 127.066 47.8024C125.328 47.1902 122.269 47.1012 120.402 47.6083ZM91.1848 47.7947C90.9675 47.8677 90.9029 66.1922 91.1181 66.7529C91.2033 66.9747 91.5708 67.0528 92.529 67.0528H93.8246L93.7722 57.417L93.7196 47.7813L92.5545 47.7536C91.9138 47.7384 91.2974 47.757 91.1848 47.7947ZM94.9417 48.5773C95.12 48.9994 95.9888 51.1209 96.8722 53.2914C97.7555 55.4618 99.3703 59.4233 100.46 62.0947L102.443 66.9517L103.66 67.011L104.877 67.0703L108.911 57.622C111.13 52.4256 112.977 48.0918 113.016 47.9914C113.055 47.89 112.441 47.8354 111.635 47.8686L110.184 47.9285L107.759 53.6961C106.426 56.8684 105.01 60.2646 104.612 61.2435C104.215 62.2224 103.839 62.972 103.776 62.9092C103.713 62.8467 102.275 59.4502 100.58 55.3619L97.4977 47.9285L96.0574 47.869L94.6173 47.8093L94.9417 48.5773ZM44.6903 49.9498C43.2426 50.3568 42.6668 50.6783 41.4867 51.7392C39.6824 53.3614 38.834 55.6096 39.033 58.2413C39.1789 60.1691 39.7799 61.4056 41.3056 62.9159C42.8945 64.4886 44.3425 65.0779 46.6544 65.0928C48.0451 65.1018 48.4132 65.022 49.5326 64.4689C51.1942 63.6481 52.5835 62.2574 53.4011 60.5965C53.9983 59.3835 54.0542 59.1052 54.0542 57.3431C54.0542 55.6242 53.9902 55.2854 53.4616 54.2021C52.6459 52.5309 50.8779 50.8263 49.3781 50.2651C47.845 49.6915 46.0416 49.5701 44.6903 49.9498ZM120.794 49.9295C118.202 50.7787 116.319 52.8579 115.781 55.4669L115.645 56.1246H123.175H130.706L130.594 55.4361C130.273 53.4594 128.374 51.0671 126.455 50.2248C125.218 49.6812 122.056 49.5163 120.794 49.9295ZM56.5839 70.898V72.9217H57.8993H59.2147V70.898V68.8742H57.8993H56.5839V70.898ZM62.4527 81.6238V94.3734H63.7682H65.0836V81.6238V68.8742H63.7682H62.4527V81.6238ZM92.8089 72.011V75.1478H90.8863H88.9638V76.3621V77.5763H90.8863H92.8089V85.9749V94.3734H94.1243H95.4398V85.9749V77.5763H97.3623H99.2849V76.3621V75.1478H97.3623H95.4398V72.011V68.8742H94.1243H92.8089V72.011ZM107.189 74.8556C105.41 75.2413 103.95 75.9946 102.613 77.2171C100.484 79.1629 99.5304 81.1567 99.3442 84.0523C99.1578 86.9509 99.9814 89.2833 101.955 91.4448C104.079 93.7709 106.437 94.8178 109.606 94.8425C112.868 94.8678 115.129 93.9296 117.226 91.6804C117.877 90.9822 118.665 89.9363 118.978 89.3565L119.548 88.3022H118.034C116.525 88.3022 116.518 88.3048 116.087 89.0016C115.402 90.1102 113.736 91.479 112.48 91.9643C110.894 92.5775 108.362 92.5704 106.715 91.9481C104.393 91.0706 102.515 88.7626 102.189 86.3857L102.063 85.4689H111.096H120.129L120.126 84.71C120.124 84.2927 119.988 83.3136 119.824 82.5345C118.624 76.8265 113.227 73.5464 107.189 74.8556ZM125.956 74.8129C123.571 75.484 121.748 77.705 121.748 79.9407C121.748 82.7373 123.179 84.146 127.656 85.7585C129.633 86.4707 130.634 87.4953 130.801 88.9773C131.102 91.6405 127.77 93.4419 125.42 91.8868C124.532 91.2995 123.893 90.2666 123.665 89.0516L123.525 88.3022H122.206H120.887L121.022 89.3646C121.318 91.6899 122.971 93.8051 125.025 94.4873C125.775 94.7364 126.503 94.802 127.791 94.7365C129.823 94.633 131.189 94.0581 132.236 92.8659C133.395 91.5454 133.586 90.9992 133.587 88.9947C133.587 87.3026 133.539 87.0786 132.974 86.1614C132.175 84.8624 130.856 83.9971 128.671 83.3369C126.367 82.6407 125.23 81.9737 124.867 81.1051C124.303 79.7567 124.709 78.2757 125.834 77.5698C126.372 77.2325 126.755 77.1637 127.775 77.2211C128.875 77.2831 129.13 77.3764 129.667 77.9139C130.009 78.2555 130.351 78.843 130.428 79.2194L130.567 79.9036L131.925 79.9635L133.284 80.0232L133.275 79.3564C133.263 78.4566 132.836 77.3173 132.196 76.4786C131.083 75.0189 128.076 74.2163 125.956 74.8129ZM40.7987 75.1239C39.2062 75.638 38.4396 76.0785 37.3265 77.1198L36.3464 78.0365V76.5922V75.1478H35.031H33.7156V87.8974V100.647H35.031H36.3464V96.0658V91.4847L37.3296 92.4043C39.1635 94.1198 41.016 94.7721 44.066 94.7757C46.4623 94.7787 48.1358 94.3088 49.8818 93.1428C52.9687 91.0816 54.579 87.7622 54.2928 84.0509C53.9544 79.6628 51.2295 76.3594 46.8837 75.0693C45.381 74.6233 42.2637 74.6512 40.7987 75.1239ZM74.7976 75.0418C71.0476 76.1231 68.3117 78.9697 67.5384 82.595C66.8072 86.0232 67.7958 89.4223 70.2358 91.8694C72.2521 93.8913 74.6541 94.8558 77.6308 94.8386C80.4179 94.8227 82.7076 93.9654 84.461 92.2818L85.321 91.456V92.9147V94.3734H86.6365H87.9519V84.7606V75.1478H86.6365H85.321V76.5922V78.0365L84.3379 77.1169C83.2194 76.0704 82.0319 75.4099 80.5652 75.0181C79.299 74.6799 76.0059 74.6935 74.7976 75.0418ZM56.5839 84.7606V94.3734H57.8993H59.2147V84.7606V75.1478H57.8993H56.5839V84.7606ZM42.8224 77.1092C40.9033 77.4312 39.1552 78.5327 37.8881 80.2183C35.6068 83.2533 35.9538 87.4912 38.7088 90.2373C41.6563 93.1751 46.0114 93.2504 49.0726 90.4164C53.6968 86.1351 51.3895 78.3421 45.1568 77.19C43.9438 76.9657 43.7228 76.9581 42.8224 77.1092ZM76.3733 77.1736C74.1368 77.5597 71.9664 79.2301 70.9081 81.3797C70.2852 82.6448 70.2441 82.8603 70.2441 84.8575C70.2441 86.7987 70.2958 87.0901 70.8276 88.1571C71.8951 90.2976 73.9405 91.8698 76.2781 92.3464C78.7823 92.8568 81.1874 92.0293 83.08 90.0061C84.655 88.3224 85.1857 86.9857 85.2029 84.6594C85.214 83.145 85.1411 82.7818 84.5939 81.6232C83.0822 78.4218 79.7112 76.5974 76.3733 77.1736ZM107.365 77.2329C104.785 77.9651 102.78 80.1299 102.224 82.7875L102.086 83.4452H109.59H117.094L117.094 82.9898C117.094 82.7395 116.826 81.9697 116.5 81.2796C115.193 78.518 113.14 77.1748 110.025 77.0437C108.988 76.9999 107.919 77.076 107.365 77.2329Z" fill="black"/>
</svg>
